<svg width="1135" height="447" viewBox="0 0 1135 447" fill="none" xmlns="http://www.w3.org/2000/svg">
<path d="M120.596 443C120.596 445.333 106.262 446.5 77.5957 446.5C49.2624 446.5 35.0957 445.333 35.0957 443V185.5H18.0957C10.0957 185.5 4.5957 178.167 1.5957 163.5C0.595704 158.833 0.0957038 152.833 0.0957038 145.5C0.0957038 138.167 2.42904 129.5 7.0957 119.5C13.7624 104.833 24.429 97.5 39.0957 97.5C48.7624 97.5 57.5957 99.8333 65.5957 104.5C73.929 108.833 79.5957 113 82.5957 117C85.929 120.667 87.5957 122.833 87.5957 123.5C109.929 106.167 134.096 97.5 160.096 97.5C186.096 97.5 208.429 107.667 227.096 128C245.762 148 255.096 179.167 255.096 221.5C255.096 263.5 245.762 296.167 227.096 319.5C208.429 342.5 184.762 354 156.096 354C143.096 354 131.262 353.333 120.596 352V443ZM141.096 185C135.429 185 129.929 186.833 124.596 190.5V279C130.262 279.667 134.762 280 138.096 280C141.762 280 144.596 280 146.596 280C160.262 278.667 167.096 261.167 167.096 227.5C167.096 199.167 158.429 185 141.096 185ZM287.939 105C287.939 101.333 302.273 99.5 330.939 99.5C359.606 99.5 373.939 101.333 373.939 105V251C373.939 267.667 379.273 276 389.939 276C397.939 276 406.939 272.5 416.939 265.5V105C416.939 101.667 431.106 100 459.439 100C487.773 100 501.939 101.667 501.939 105V269H514.939C526.273 269 531.939 279.833 531.939 301.5C531.939 312.5 529.606 323.667 524.939 335C518.273 349.667 509.273 357 497.939 357C475.606 357 459.106 347.833 448.439 329.5L447.939 330C427.606 348 405.773 357 382.439 357C350.106 357 326.273 349 310.939 333C295.606 316.667 287.939 289.833 287.939 252.5V105ZM653.412 348C653.412 351 636.412 352.5 602.412 352.5C575.745 352.167 562.412 350.833 562.412 348.5V7.99999C562.412 2.99999 578.579 0.499995 610.912 0.499995C639.245 1.49998 653.412 3.16665 653.412 5.49999V348ZM709.143 262C736.143 278.333 757.476 286.5 773.143 286.5C783.143 286.5 788.143 283 788.143 276C788.143 271 779.476 264.5 762.143 256.5C720.476 239.5 699.643 211.667 699.643 173C699.643 148.333 708.643 129.5 726.643 116.5C744.643 103.5 766.143 97 791.143 97C816.476 97 837.809 99.6666 855.143 105C872.809 110.333 881.643 117.333 881.643 126C881.643 133.333 877.976 143 870.643 155C863.643 167 858.809 173.5 856.143 174.5C841.809 166.5 826.309 162.5 809.643 162.5C800.643 162.5 796.143 165.667 796.143 172C796.143 176 797.809 179.5 801.143 182.5C804.809 185.167 811.309 188.667 820.643 193C829.976 197 837.643 200.667 843.643 204C849.976 207.333 856.976 212 864.643 218C880.643 230.667 888.643 247.167 888.643 267.5C888.643 294.167 879.809 315.833 862.143 332.5C844.476 348.833 817.809 357 782.143 357C758.476 357 736.976 353 717.643 345C698.309 337 688.643 326 688.643 312C688.643 302.667 690.809 292.833 695.143 282.5C699.809 272.167 704.476 265.333 709.143 262ZM1112.74 338.5C1091.74 350.833 1064.74 357 1031.74 357C998.74 357 970.907 345.833 948.24 323.5C925.574 300.833 914.24 269.667 914.24 230C914.24 190 925.074 157.833 946.74 133.5C968.74 109.167 996.407 97 1029.74 97C1063.07 97 1088.74 105.5 1106.74 122.5C1125.07 139.5 1134.24 160.167 1134.24 184.5C1134.24 238.5 1103.24 265.5 1041.24 265.5H1006.74C1006.74 275.5 1009.41 282.5 1014.74 286.5C1020.41 290.167 1028.57 292 1039.24 292C1062.57 292 1084.74 286.667 1105.74 276C1106.07 275.667 1107.57 278 1110.24 283C1118.24 297.333 1122.24 309.5 1122.24 319.5C1122.24 329.167 1119.07 335.5 1112.74 338.5ZM1050.24 194C1050.24 180 1043.41 173 1029.74 173C1023.41 173 1017.91 175 1013.24 179C1008.91 182.667 1006.74 188.167 1006.74 195.5V211H1033.74C1044.74 211 1050.24 205.333 1050.24 194Z" fill="black"/>
</svg>
