<svg width="800" height="800" viewBox="0 0 800 800" fill="none" xmlns="http://www.w3.org/2000/svg">
<path d="M733.333 633.333H433.333C307.625 633.333 244.772 633.333 205.719 594.28C166.667 555.23 166.667 492.373 166.667 366.667V66.6667" stroke="black" stroke-width="50" stroke-linecap="round"/>
<path d="M266.667 166.667H366.667C492.373 166.667 555.23 166.667 594.28 205.719C633.333 244.772 633.333 307.625 633.333 433.333V533.333M66.6667 166.667H166.667M633.333 633.333V733.333" stroke="black" stroke-width="50" stroke-linecap="round"/>
<path d="M283.333 383.333C283.333 336.193 283.333 312.623 297.978 297.978C312.623 283.333 336.193 283.333 383.333 283.333H416.667C463.807 283.333 487.377 283.333 502.023 297.978C516.667 312.623 516.667 336.193 516.667 383.333V416.667C516.667 463.807 516.667 487.377 502.023 502.023C487.377 516.667 463.807 516.667 416.667 516.667H383.333C336.193 516.667 312.623 516.667 297.978 502.023C283.333 487.377 283.333 463.807 283.333 416.667V383.333Z" stroke="#FF0000" stroke-width="50"/>
</svg>
